<svg xmlns="http://www.w3.org/2000/svg" id="Line_cutting_cut_Ex" data-name="Line cutting cut Ex" width="512" height="512" viewBox="0 0 512 512" fill="#C3AC67"><g><path d="M343.4468,389.0771l-.0137-.0341c-.0215-.0542-.0437-.1079-.0664-.1617l-.0234-.0549c-.021-.0486-.0428-.0974-.065-.1457l-.0273-.06q-.0465-.1-.0957-.1985L324.208,350.5273l-4.7832-9.5661-18.9482-58.4505c-.0371-.1152-.0772-.2285-.1192-.3418A28.1308,28.1308,0,0,0,274.14,264H152v16H274.14a12.0567,12.0567,0,0,1,11.18,7.6387L300.9971,336H83.0029l15.6778-48.3613A12.0567,12.0567,0,0,1,109.86,280H136V264H109.86a28.1308,28.1308,0,0,0-26.2178,18.1689c-.042.1133-.0821.2266-.1192.3418L64.5752,340.9612l-4.7832,9.5661L40.8447,388.4219q-.0494.0989-.0957.1985l-.0273.06c-.0222.0483-.044.0971-.065.1457l-.0234.0549c-.0227.0538-.0449.1075-.0664.1617l-.0137.0341A7.9519,7.9519,0,0,0,40,392.1208V446A17.9971,17.9971,0,0,0,48,460.96V478a18.0209,18.0209,0,0,0,18,18h36a18.0209,18.0209,0,0,0,18-18V464H264v14a18.0209,18.0209,0,0,0,18,18h36a18.0209,18.0209,0,0,0,18-18V460.96A17.9971,17.9971,0,0,0,344,446V392.1208A7.9519,7.9519,0,0,0,343.4468,389.0771ZM328,446a2.0027,2.0027,0,0,1-2,2H276.9443l10.1546-20.3091a7.9559,7.9559,0,0,0,.8913-3.2934l0-.0142c.0034-.071.0056-.1421.0071-.2136.0007-.0261.0007-.0518.001-.0777,0-.0307.0012-.0612.0012-.092v-8h16a8,8,0,0,0,3.5781-.8447L328,404.9443ZM56,446V404.9443l20.4219,10.211A8,8,0,0,0,80,416H96v8c0,.0308.0007.0613.0012.092,0,.0259,0,.0516.001.0777.0015.0715.0037.1426.0071.2136l.0005.0142a7.9559,7.9559,0,0,0,.8913,3.2934L107.0557,448H58A2.0027,2.0027,0,0,1,56,446Zm56-34.6855L123.3145,400H152a31.804,31.804,0,0,0,4.2952,16H112ZM168,400a16.0183,16.0183,0,0,1,16-16h16a16,16,0,0,1,0,32H184A16.0183,16.0183,0,0,1,168,400Zm64,0h28.6855L272,411.3145V416H227.7048A31.804,31.804,0,0,0,232,400Zm93.2666-11.5781L302.1113,400H283.3145l-6.98-6.9795,37.749-26.9639ZM306.2373,352l-44.8,32H227.7048A32.0193,32.0193,0,0,0,200,368H184a32.0193,32.0193,0,0,0-27.7048,16H122.563l-44.8-32ZM69.916,366.0566l37.749,26.9639L100.6855,400H81.8887L58.7334,388.4219ZM104,478a2.0027,2.0027,0,0,1-2,2H66a2.0027,2.0027,0,0,1-2-2V464h40Zm20.9443-30-8-16H267.0557l-8,16ZM320,478a2.0027,2.0027,0,0,1-2,2H282a2.0027,2.0027,0,0,1-2-2V464h40Z"></path><path d="M454,352h-6V320h16V304H368v16h16v32h-6a18.0209,18.0209,0,0,0-18,18V478a18.0209,18.0209,0,0,0,18,18h76a18.0209,18.0209,0,0,0,18-18V370A18.0209,18.0209,0,0,0,454,352Zm-54-32h32v32H400Zm-22,48h76a2.0027,2.0027,0,0,1,2,2v42.9l-80-26.6667V370A2.0027,2.0027,0,0,1,378,368Zm78,76.9-80-26.666V403.1l80,26.666ZM454,480H378a2.0027,2.0027,0,0,1-2-2V435.1l80,26.6667V478A2.0027,2.0027,0,0,1,454,480Z"></path><path d="M160.3076,194.1982A8.0006,8.0006,0,0,0,168,200H320.0273a8.0011,8.0011,0,0,0,3.23-.6816l35.52-15.68a8.0131,8.0131,0,0,0,1.2071-.6621,17.9992,17.9992,0,0,0,0-29.9532,8.0549,8.0549,0,0,0-1.44-.7607L328.76,140.2236A27.8938,27.8938,0,0,0,313.9727,136h-16.375L236.2744,97.2373A7.9979,7.9979,0,0,0,232,96H208a7.9995,7.9995,0,0,0-7.1553,11.5781l19.54,39.0791-18.6309,4.6582L172.8,129.6A8.0032,8.0032,0,0,0,168,128H152a8.0007,8.0007,0,0,0-7.6924,10.1982ZM165.333,144,195.2,166.4a8.01,8.01,0,0,0,6.74,1.36l32-8a7.9988,7.9988,0,0,0,5.2149-11.3388L220.9443,112h8.7393l61.3232,38.7627A7.9982,7.9982,0,0,0,295.2812,152h18.6915a11.96,11.96,0,0,1,6.6552,2.0156,8.0237,8.0237,0,0,0,1.44.7608l29.4394,11.8994a2.023,2.023,0,0,1-.0557,2.707L318.34,184H174.0342l-11.4287-40Z"></path><path d="M130,240H382a18.0209,18.0209,0,0,0,18-18V136H384v86a2.0027,2.0027,0,0,1-2,2H130a2.0027,2.0027,0,0,1-2-2V74a2.0027,2.0027,0,0,1,2-2H382a2.0027,2.0027,0,0,1,2,2v46h16V74a18.0209,18.0209,0,0,0-18-18H368V16H352V56H160V16H144V56H130a18.0209,18.0209,0,0,0-18,18V222A18.0209,18.0209,0,0,0,130,240Z"></path><rect x="144" y="88" width="16" height="16"></rect><rect x="352" y="88" width="16" height="16"></rect></g></svg>