<svg xmlns="http://www.w3.org/2000/svg" id="Layer_1" data-name="Layer 1" viewBox="0 0 512 512" width="512" height="512"><path d="M195.931,52.75c-2.82,2.488-7.081,6.247-7.081,13.41a6,6,0,0,0,12,0c0-1.586.572-2.252,3.019-4.41,2.82-2.488,7.081-6.247,7.081-13.41s-4.261-10.922-7.081-13.409c-2.447-2.159-3.019-2.825-3.019-4.411s.571-2.244,3.016-4.4c2.821-2.487,7.084-6.246,7.084-13.411a6,6,0,0,0-12,0c0,1.586-.572,2.252-3.02,4.41-2.82,2.486-7.08,6.242-7.08,13.4s4.261,10.922,7.081,13.41c2.447,2.158,3.019,2.824,3.019,4.41S198.378,50.592,195.931,52.75Z"></path><path d="M154.151,52.75c-2.82,2.488-7.081,6.247-7.081,13.41a6,6,0,0,0,12,0c0-1.586.572-2.252,3.019-4.41,2.82-2.488,7.081-6.247,7.081-13.41s-4.261-10.922-7.081-13.409c-2.447-2.159-3.019-2.825-3.019-4.411s.571-2.244,3.016-4.4c2.821-2.487,7.084-6.246,7.084-13.411a6,6,0,0,0-12,0c0,1.586-.572,2.252-3.02,4.41-2.82,2.486-7.08,6.242-7.08,13.4s4.261,10.922,7.081,13.41c2.447,2.158,3.019,2.824,3.019,4.41S156.6,50.592,154.151,52.75Z"></path><path d="M237.711,52.75c-2.82,2.488-7.081,6.247-7.081,13.41a6,6,0,0,0,12,0c0-1.586.572-2.252,3.019-4.41,2.82-2.488,7.081-6.247,7.081-13.41s-4.261-10.922-7.081-13.409c-2.447-2.159-3.019-2.825-3.019-4.411s.571-2.244,3.016-4.4c2.821-2.487,7.084-6.246,7.084-13.411a6,6,0,1,0-12,0c0,1.586-.572,2.252-3.02,4.41-2.819,2.486-7.08,6.242-7.08,13.4s4.261,10.922,7.081,13.41c2.447,2.158,3.019,2.824,3.019,4.41S240.158,50.592,237.711,52.75Z"></path><path d="M279.491,52.75c-2.82,2.488-7.081,6.247-7.081,13.41a6,6,0,1,0,12,0c0-1.586.572-2.252,3.019-4.41,2.82-2.488,7.081-6.247,7.081-13.41s-4.261-10.922-7.081-13.409c-2.447-2.159-3.019-2.825-3.019-4.411s.571-2.244,3.016-4.4c2.821-2.487,7.084-6.246,7.084-13.411a6,6,0,1,0-12,0c0,1.586-.572,2.252-3.02,4.41-2.819,2.486-7.08,6.242-7.08,13.4s4.261,10.922,7.081,13.41c2.447,2.158,3.019,2.824,3.019,4.41S281.938,50.592,279.491,52.75Z"></path><path d="M73.17,122.29H98.1v15.69a6,6,0,0,0,6,6h27.38a6,6,0,0,0,6-6V122.29h3.282a27.687,27.687,0,0,0,54.061,0H199.1v15.69a6,6,0,0,0,6,6h25.38a6,6,0,0,0,6-6V122.29h4.282a27.687,27.687,0,0,0,54.061,0H298.1v15.69a6,6,0,0,0,6,6h25.38a6,6,0,0,0,6-6V122.29h32.31v9.5a6,6,0,0,0,6,6h86.5a21.5,21.5,0,1,0,0-43h-86.5a6,6,0,0,0-6,6v9.5H335.48V94.6a6,6,0,0,0-6-6H304.1a6,6,0,0,0-6,6v15.69h-3.277a27.69,27.69,0,0,0-54.066,0H236.48V94.6a6,6,0,0,0-6-6H205.1a6,6,0,0,0-6,6v15.69h-4.277a27.69,27.69,0,0,0-54.066,0H137.48V94.6a6,6,0,0,0-6-6H104.1a6,6,0,0,0-6,6v15.69H73.17a6,6,0,0,0,0,12Zm325.62-15.5h61.5a9.5,9.5,0,0,1,0,19h-61.5Zm-19,0h7v19h-7ZM310.1,100.6h13.38v31.38H310.1Zm-53.413,4.6A15.694,15.694,0,1,1,252.1,116.29,15.626,15.626,0,0,1,256.687,105.2ZM211.1,100.6h13.38v31.38H211.1Zm-54.413,4.6A15.694,15.694,0,1,1,152.1,116.29,15.626,15.626,0,0,1,156.687,105.2ZM110.1,100.6h15.38v31.38H110.1Z"></path><path d="M79.061,242.377a6,6,0,0,0-10.642,5.545,156.213,156.213,0,0,0,54.35,59.344,6,6,0,1,0,6.462-10.112A144.2,144.2,0,0,1,79.061,242.377Z"></path><path d="M72.1,226.8c-1.239-3.293-2.346-6.588-3.291-9.794A6,6,0,0,0,57.3,220.4c1.027,3.486,2.228,7.061,3.569,10.626A6,6,0,1,0,72.1,226.8Z"></path><path d="M31.664,199.125c.006.047.01.094.016.14A176.378,176.378,0,0,0,137.348,338.318L61.676,496.7A6,6,0,1,0,72.5,501.876L84.117,477.57H298.862a35.831,35.831,0,1,0,22.578-41.7l-46.5-97.646A176.025,176.025,0,0,0,370.4,238.95H407.38a6,6,0,0,0,6-6V194.46a6,6,0,0,0-6-6H381.459c.27-3.973.421-7.976.421-11.97a6,6,0,0,0-6-6H36.21a6,6,0,0,0-6,6,176.677,176.677,0,0,0,1.45,22.6Zm348.574,1.335H401.38v26.49h-26.9A174.559,174.559,0,0,0,380.238,200.46ZM321.632,448.986l.006,0a23.806,23.806,0,1,1-11.655,22.055c-.036-.47-.053-.975-.053-1.547A23.911,23.911,0,0,1,321.632,448.986ZM311,441.854a36.014,36.014,0,0,0-12.834,23.716H89.85l58.726-122.919a175.6,175.6,0,0,0,115.148-.075ZM369.771,182.49c-.123,3.356-.365,6.7-.69,10H141.5a6,6,0,0,0,0,12H367.469A163.81,163.81,0,0,1,147.54,329.508,164.39,164.39,0,0,1,44.625,204.49H107.5a6,6,0,0,0,0-12H43c-.322-3.312-.555-6.65-.676-10Z"></path></svg>