<svg xmlns="http://www.w3.org/2000/svg" id="Capa_1" height="512" viewBox="0 0 512 512" width="512"><g><path d="m420.036 480.545c-14.379 10.762-31.503 16.451-49.52 16.451h-224.54c-45.617 0-82.73-37.113-82.73-82.73s37.112-82.73 82.73-82.73h47.346c4.143 0 7.502-3.359 7.502-7.502s-3.359-7.502-7.502-7.502h-47.346c-53.891 0-97.734 43.843-97.734 97.734s43.843 97.734 97.734 97.734h224.541c21.284 0 41.516-6.723 58.51-19.443 3.317-2.483 3.993-7.184 1.511-10.501-2.483-3.317-7.185-3.993-10.502-1.511z"></path><path d="m370.517 316.532h-82.035c-2.418-15.762-16.07-27.873-32.498-27.873-18.129 0-32.878 14.749-32.878 32.878s14.749 32.877 32.878 32.877c14.644 0 27.077-9.625 31.318-22.879h83.214c45.617 0 82.73 37.113 82.73 82.73 0 15.257-4.185 30.163-12.102 43.105-2.162 3.534-1.05 8.152 2.485 10.314 1.221.747 2.573 1.103 3.907 1.103 2.526 0 4.992-1.276 6.407-3.588 9.359-15.3 14.306-32.913 14.306-50.934.002-53.89-43.842-97.733-97.732-97.733zm-114.533 22.879c-9.856 0-17.874-8.018-17.874-17.874s8.018-17.874 17.874-17.874 17.874 8.018 17.874 17.874-8.018 17.874-17.874 17.874z"></path><path d="m375.711 218.749c4.479 7.58 12.735 12.288 21.545 12.288 4.458 0 8.851-1.203 12.704-3.48 5.75-3.398 9.834-8.832 11.497-15.301 1.664-6.469.708-13.199-2.69-18.949-16.42-27.786-39.83-51.067-67.701-67.325-28.752-16.773-61.632-25.639-95.084-25.639s-66.331 8.866-95.084 25.638c-27.87 16.258-51.281 39.539-67.701 67.325-3.398 5.75-4.353 12.48-2.69 18.949 1.664 6.469 5.747 11.903 11.497 15.3 11.473 7.087 27.638 2.901 34.251-8.807 24.929-42.186 70.805-68.393 119.726-68.393s94.801 26.207 119.73 68.394zm-252.37-7.633c-2.639 4.686-9.127 6.355-13.7 3.523-2.3-1.359-3.934-3.533-4.599-6.121s-.283-5.279 1.076-7.579c15.121-25.588 36.679-47.026 62.344-61.999 26.46-15.436 56.725-23.594 87.523-23.594s61.063 8.159 87.523 23.595c25.665 14.972 47.223 36.41 62.344 61.999 4.032 6.326-1.114 15.323-8.595 15.093-3.583 0-6.809-1.838-8.628-4.917-27.616-46.733-78.442-75.764-132.644-75.764s-105.029 29.031-132.644 75.764z"></path><path d="m498.486 131.504c-53.686-82.344-144.341-131.504-242.502-131.504-36.744 0-72.589 6.805-106.539 20.226-3.853 1.523-5.742 5.881-4.218 9.734 1.523 3.853 5.882 5.743 9.734 4.218 32.186-12.724 66.175-19.175 101.023-19.175 93.07 0 179.027 46.615 229.934 124.695 1.459 2.238 1.959 4.91 1.409 7.524-1.478 8.514-13.711 10.805-18.167 3.401-47.2-72.393-126.892-115.614-213.176-115.614s-165.976 43.221-213.176 115.617c-2.852 4.563-9.379 5.944-13.841 2.915-2.238-1.459-3.774-3.703-4.325-6.317-.55-2.614-.05-5.286 1.41-7.525 24.964-38.29 59.225-69.962 99.08-91.591 3.641-1.976 4.991-6.53 3.015-10.172-1.977-3.642-6.53-4.992-10.172-3.015-42.039 22.815-78.172 56.213-104.493 96.584-7.575 11.107-4.122 27.496 7.289 34.604 4.075 2.657 8.792 4.062 13.641 4.062 8.494 0 16.331-4.244 20.964-11.351 44.421-68.132 119.415-108.807 200.608-108.807s156.187 40.675 200.608 108.806c7.122 11.404 23.449 14.875 34.604 7.29 5.596-3.648 9.436-9.256 10.813-15.793s.126-13.217-3.523-18.812z"></path><path d="m294.707 276.014c4.616 7.248 12.507 11.576 21.109 11.576 4.753 0 9.392-1.354 13.415-3.916 11.63-7.406 15.067-22.894 7.66-34.524-17.72-27.828-47.966-44.442-80.907-44.442s-63.187 16.614-80.907 44.442c-7.407 11.63-3.97 27.118 7.66 34.524 5.643 3.602 12.388 4.762 18.849 3.321 6.521-1.447 12.088-5.347 15.675-10.981 8.491-13.333 22.967-21.293 38.723-21.293s30.232 7.959 38.723 21.293zm-90.101-8.058c-1.434 2.253-3.661 3.813-6.269 4.391-2.608.581-5.286.107-7.541-1.328-4.652-2.962-6.026-9.158-3.063-13.81 14.952-23.479 40.466-37.497 68.252-37.497s53.3 14.018 68.252 37.497c2.963 4.653 1.588 10.848-3.063 13.81-4.499 2.979-11.006 1.536-13.81-3.064-11.26-17.682-30.467-28.238-51.378-28.238s-40.12 10.556-51.38 28.239z"></path><path d="m160.746 390.939c4.143 0 7.502-3.359 7.502-7.502s-3.359-7.502-7.502-7.502h-26.856c-4.143 0-7.502 3.359-7.502 7.502v66.263c0 4.143 3.359 7.502 7.502 7.502s7.502-3.359 7.502-7.502v-26.257h17.221c4.143 0 7.502-3.359 7.502-7.502s-3.359-7.502-7.502-7.502h-17.221v-17.5z"></path><path d="m310.925 390.372c4.143 0 7.502-3.359 7.502-7.502s-3.359-7.502-7.502-7.502h-27.869c-4.143 0-7.502 3.359-7.502 7.502v66.143c0 4.143 3.359 7.502 7.502 7.502h27.869c4.143 0 7.502-3.359 7.502-7.502s-3.359-7.502-7.502-7.502h-20.367v-18.068h18.313c4.143 0 7.502-3.359 7.502-7.502s-3.359-7.502-7.502-7.502h-18.313v-18.068h20.367z"></path><path d="m383.556 390.372c4.143 0 7.502-3.359 7.502-7.502s-3.359-7.502-7.502-7.502h-27.87c-4.143 0-7.502 3.359-7.502 7.502v66.143c0 4.143 3.359 7.502 7.502 7.502h27.87c4.143 0 7.502-3.359 7.502-7.502s-3.359-7.502-7.502-7.502h-20.368v-18.068h18.313c4.143 0 7.502-3.359 7.502-7.502s-3.359-7.502-7.502-7.502h-18.313v-18.068h20.368z"></path><path d="m246.585 400.499c0-13.702-11.588-24.85-25.832-24.85h-17.738c-.004 0-.007.001-.011.001s-.007-.001-.011-.001c-4.143 0-7.502 3.359-7.502 7.502v66.752c0 4.143 3.359 7.502 7.502 7.502s7.502-3.359 7.502-7.502v-21.127l22.956 26.083c1.483 1.685 3.553 2.546 5.634 2.546 1.76 0 3.528-.616 4.953-1.871 3.11-2.737 3.412-7.477.675-10.588l-17.868-20.302c11.313-2.642 19.74-12.462 19.74-24.145zm-25.832 9.846c-2.356 0-6.483.018-10.156.036-.019-3.594-.046-15.965-.058-19.728h10.214c5.869 0 10.828 4.509 10.828 9.846s-4.959 9.846-10.828 9.846z"></path></g></svg>