<svg xmlns="http://www.w3.org/2000/svg" id="Capa_1" height="512" viewBox="0 0 512 512" width="512"><g><path d="m465.834 415.736h-28.112c-.025 0-.042-.025-.034-.048l17.36-46.707c.253-.684.511-1.357.764-2.02 2.067-5.409 4.411-11.54 1.751-17.386-1.576-3.463-4.545-6.014-8.824-7.583l-27.427-10.057c-.033-.012-.066-.019-.099-.031-.038-.013-.073-.031-.111-.043l-44.732-14.916c-.685-.228-1.114-.406-1.369-.527-.009-.004-.013-.01-.016-.019-.222-.745-.5-2.193-.715-3.31l-10.959-56.523c0-.005 0-.009 0-.014l8.191-41.26c.004-.021.026-.034.047-.027l6.509 2.219c.015.005.024.019.024.034v30.597c0 14.872 12.003 27.003 26.736 27.043h.14c7.118 0 14.111-2.898 19.205-7.965 5.113-5.086 7.93-11.802 7.93-18.908v-50.83c0-.099-.002-.197-.006-.297-.437-11.033-7.768-20.861-18.261-24.46l-50.12-17.064c-.007-.002-.014-.007-.018-.013l-12.306-17.708c-.011-.016-.007-.038.009-.049 9.322-6.366 16.618-15.635 21.733-27.68.072-.17.133-.343.192-.516.007-.021.018-.039.025-.06.006-.018.011-.035.017-.053.005-.016.01-.032.015-.047 7.093-21.492 8.146-41.238 3.04-57.107-5.482-17.045-17.825-29.392-35.686-35.705-8.48-3.007-16.757-2.936-25.522-2.863-12.434.105-26.545.224-45.171-9.04-3.619-1.802-8.009-.41-9.933 3.142-8.772 16.185-6.822 31.365 5.135 42.674.013.012.015.031.005.045-7.238 10.36-11.166 22.668-11.166 35.399 0 20.697 12.074 40.876 30.753 52.493.017.01.022.032.011.049l-19.168 30.023c-.007.01-.018.016-.03.017l-16.05.081c-.012 0-.023-.006-.03-.016l-18.16-26.384c-8.422-12.224-25.246-15.332-37.51-6.926-5.993 4.122-10.002 10.356-11.287 17.556-1.266 7.09.3 14.196 4.406 20.008l28.314 40.088c.021.03.044.062.066.093 7.835 10.742 14.693 10.764 24.249 10.795h22.71c.02 0 .036.016.036.036l.063 29.413c0 .01-.004.019-.011.026l-32.157 31.406c-.002.001-.003.003-.005.005-7.835 7.666-11.807 16.9-11.807 27.447v64.281c0 .016-.01.03-.026.034-7.261 1.907-15.974 6.358-23.054 13.724-6.844 7.12-10.958 15.796-12.138 25.405-.002.018-.017.031-.035.031h-31.592c-.02 0-.036-.016-.036-.036v-3.093c0-27.532-20.825-50.283-47.559-53.385-.018-.002-.031-.017-.031-.035v-135.895c0-.027.03-.045.054-.031l13.858 7.862c4.319 2.449 9.096 3.612 13.843 3.612 9.5-.001 18.883-4.661 24.238-13.008 4.009-6.199 5.262-13.502 3.53-20.564-1.733-7.064-6.225-12.962-12.648-16.604l-104.473-59.261c-12.936-7.334-30.031-3.132-38.115 9.376-4.006 6.214-5.257 13.523-3.52 20.581 1.735 7.051 6.225 12.939 12.643 16.578l34.02 19.301c.011.006.018.018.018.031v73.687c0 4.126 3.179 7.739 7.303 7.845 4.232.108 7.697-3.289 7.697-7.497v-65.484c0-.027.03-.045.054-.031l26.483 15.025c.011.006.018.018.018.031v144.07c0 .02-.016.036-.036.036h-26.484c-.02 0-.036-.016-.036-.036v-56.406c0-4.126-3.179-7.739-7.303-7.845-4.232-.108-7.697 3.289-7.697 7.497v56.753c0 .02-.016.036-.036.036h-25.803c-9.485 0-17.174 7.689-17.174 17.174v114.809c0 9.48 7.685 17.164 17.164 17.164h122.494 321.745c25.457 0 46.166-20.694 46.166-46.13s-20.71-46.129-46.166-46.129zm-226.21-206.807c-8.562-.027-8.754-.028-12.081-4.589l-28.282-40.042c-1.774-2.512-2.446-5.607-1.891-8.718.574-3.22 2.357-6.002 5.011-7.826 5.45-3.737 12.928-2.358 16.667 3.066l19.724 28.659c2.595 3.732 5.483 4.247 8.255 4.247l15.237-.076c.02 0 .036.016.036.036l.054 25.207c0 .02-.016.036-.036.036zm-224.295-57.256c-.74-3.009-.186-6.159 1.557-8.862 2.532-3.917 7.094-6.127 11.646-6.127 2.239 0 4.476.535 6.468 1.664l104.475 59.26s0 0 .001.001c2.794 1.584 4.74 4.116 5.479 7.13.737 3.01.185 6.151-1.572 8.869-3.753 5.85-12.031 7.894-18.071 4.47l-104.505-59.29c-2.795-1.585-4.74-4.111-5.478-7.115zm428.308 204.548c-.322 1.428-1.205 3.737-1.834 5.386-.271.71-.548 1.433-.816 2.157l-19.309 51.949c-.005.014-.019.023-.034.023h-4.486c-.766 0-2.359 0-4.285-2.801-5.186-7.543-5.434-23.704-3.913-27.778l.317-.793c.012-.03.023-.061.035-.09l13.752-35.684c.007-.018.027-.027.046-.021l20.437 7.493c.033.06.056.1.09.159zm-72.008-25.045 37.244 12.419c.019.006.029.028.022.047l-3.071 7.97-7.896 20.491c-.007.018-.027.027-.045.021l-66.199-22.754c-4.497-1.548-5.655-3.12-7.214-6.314l-12.762-26.419c-.008-.017-.002-.037.014-.046 11.84-6.426 29.947-16.604 41.389-33.52.018-.026.058-.018.064.013l6.369 32.85c1.184 6.163 2.304 11.985 12.085 15.242zm-17.677-162.343c1.023 0 2.061.133 3.093.408.074.02.125.033.179.046.007.002.013.003.02.005.029.007.056.013.095.021.115.031.232.075.345.115.038.014.076.027.114.04l51.177 17.423c4.624 1.587 7.872 5.889 8.118 10.731v50.663c0 3.085-1.246 6.023-3.508 8.273-2.303 2.29-5.442 3.6-8.643 3.6-.021 0-.042 0-.063 0-6.505-.018-11.797-5.421-11.797-12.044v-32.574c0-.24.015-.466.025-.676.363-6.938-3.805-9.404-6.311-10.253l-36.713-12.512c-.002-.001-.005-.001-.007-.002-3.016-1.027-5.457-3.182-6.874-6.067-1.411-2.873-1.625-6.101-.599-9.102 1.681-4.929 6.34-8.095 11.349-8.095zm-83.431-147.31c.006-.021.03-.032.05-.024 18.362 7.553 32.849 7.434 44.761 7.331 7.728-.063 14.397-.12 20.391 2.004 26.288 9.292 30.347 31.968 28.413 51.109-.003.031-.041.043-.061.02-1.912-2.156-4.242-4.187-7.078-5.953-.003-.002-.005-.005-.008-.007-8.381-10.209-20.136-19.483-35.618-20.66-12.643-.958-30.165-4.656-41.421-12.163-.006-.004-.012-.007-.018-.011-9.036-5.99-12.084-12.831-9.411-21.646zm-1.445 64.528c0-9.656 2.981-19.002 8.489-26.865.021-.005.035-.009.056-.014 16.429 8.514 36.35 10.653 42.617 11.128 21.45 1.629 34.242 28.133 37.843 36.734.004.009.003.019-.001.028-4.915 10.213-11.873 17.472-20.732 21.604-6.048 2.845-13.211 4.287-21.29 4.287-5.662 0-11.69-1.378-17.423-3.981-14.714-6.706-29.559-22.578-29.559-42.921zm29.446 58.986c.009-.014.026-.02.041-.014 5.806 1.923 11.755 2.931 17.495 2.931 7.85 0 15.118-1.124 21.692-3.327.015-.005.031 0 .04.013l7.39 10.635c.013.019.005.045-.017.053-7.628 2.639-13.987 8.633-16.754 16.757-2.32 6.785-1.849 14.087 1.331 20.559 3.185 6.485 8.69 11.335 15.504 13.654l11.915 4.062c.017.006.027.023.024.041l-7.665 38.615c-.003.017-.018.029-.035.029h-72.006c-.02 0-.036-.016-.036-.036l-.151-70.703c0-.007.002-.014.006-.019zm-65.053 167.224c0-6.447 2.386-11.918 7.293-16.721l32.238-31.486c.007-.007.016-.01.025-.01h73.023c.025 0 .043.026.034.049-7.507 20.893-29.147 32.615-42.705 39.961-1.904 1.031-3.703 2.006-5.191 2.859l-24.396 13.63c-10.162 5.681-12.025 8.656-11.727 18.731.036 1.24.078 2.645.078 4.334l.139 31.833c0 .02-.016.036-.036.036h-28.738c-.02 0-.036-.016-.036-.036v-63.18zm-27.265 88.434c6.699-6.971 15.755-10.218 19.765-10.218h36.322c.02 0 .036.016.036.036l.055 25.188c0 .02-.016.036-.036.036h-63.906c-.023 0-.04-.021-.036-.043 1.041-5.658 3.651-10.682 7.8-14.999zm-186.774 90.127v-114.799c0-1.196.979-2.174 2.174-2.174h76.181c21.396 0 38.803 17.387 38.803 38.759v10.629 69.725c0 .02-.016.036-.036.036h-114.947c-1.196-.001-2.175-.98-2.175-2.176zm446.404 2.175h-314.209c-.02 0-.036-.016-.036-.036v-23.559c0-.02.016-.036.036-.036h314.748c4.126 0 7.739-3.179 7.845-7.303.108-4.232-3.289-7.697-7.497-7.697h-315.096c-.02 0-.036-.016-.036-.036v-23.559c0-.02.016-.036.036-.036h38.795 79.478 52.79c4.126 0 7.739-3.179 7.845-7.303.108-4.232-3.289-7.697-7.497-7.697h-45.618c-.02 0-.036-.016-.036-.036l-.07-32.037v-.687c0-.005-.001-.01-.001-.015 0 0 .001-.011.001-.017l-.172-39.369c0-1.878-.047-3.467-.085-4.744-.012-.427-.026-.871-.035-1.295-.021-.923.454-1.781 1.243-2.26 1.032-.627 2.228-1.296 2.844-1.639l17.413-9.729c.018-.01.041-.003.05.016l12.406 25.682c2.589 5.306 6.297 10.668 15.83 13.948l66.689 22.922c.016.005.026.02.024.037-.902 8.087-.119 19.835 3.881 29.174.01.023-.007.049-.032.049h-38.408c-4.126 0-7.739 3.179-7.845 7.303-.108 4.232 3.289 7.697 7.497 7.697h58.547 9.724 38.952c17.185 0 31.166 13.965 31.166 31.13-.001 17.167-13.982 31.132-31.167 31.132z"></path><path d="m76.837 444.852h-14.953c-4.126 0-7.739 3.179-7.845 7.303-.108 4.232 3.289 7.697 7.497 7.697h14.954c4.126 0 7.739-3.179 7.845-7.303.108-4.233-3.29-7.697-7.498-7.697z"></path><path d="m76.851 409.422h-14.981c-4.126 0-7.739 3.179-7.845 7.303-.108 4.232 3.289 7.697 7.497 7.697h14.981c4.126 0 7.739-3.179 7.845-7.303.109-4.233-3.289-7.697-7.497-7.697z"></path><path d=""></path></g></svg>