<svg xmlns="http://www.w3.org/2000/svg" id="Capa_1" height="70" viewBox="0 0 512 512" width="70" fill="#C3AC67"><g><path d="m176.572 354.119c0 16.217 6.315 31.463 17.782 42.929 11.467 11.468 26.713 17.783 42.93 17.783s31.463-6.315 42.93-17.783v.001c1.934-1.934 4.504-2.999 7.238-2.999 2.735 0 5.307 1.065 7.239 2.998 11.467 11.468 26.713 17.783 42.93 17.783 16.218 0 31.464-6.315 42.93-17.782 11.468-11.467 17.783-26.713 17.783-42.93 0-16.218-6.315-31.464-17.782-42.931l-34.222-34.222c-32.464-32.464-85.288-32.465-117.754 0l-34.222 34.222c-11.467 11.468-17.782 26.714-17.782 42.931zm62.61-66.545c26.616-26.617 69.924-26.618 96.541 0l34.223 34.222c8.634 8.634 13.389 20.112 13.389 32.323 0 12.21-4.755 23.688-13.39 32.323-8.634 8.634-20.112 13.389-32.323 13.389-12.21 0-23.688-4.755-32.322-13.39-4.767-4.767-11.104-7.392-17.847-7.392-6.741 0-13.079 2.625-17.846 7.392v.001c-8.634 8.634-20.113 13.389-32.323 13.389s-23.689-4.755-32.323-13.39c-8.634-8.634-13.389-20.112-13.389-32.323 0-12.21 4.754-23.688 13.388-32.322z"></path><path d="m274.103 192.998c0-26.211-13.234-46.743-30.13-46.743s-30.131 20.532-30.131 46.743 13.235 46.742 30.131 46.742 30.13-20.531 30.13-46.742zm-45.262 0c0-18.168 7.988-31.743 15.131-31.743 7.142 0 15.13 13.575 15.13 31.743 0 18.167-7.988 31.742-15.13 31.742s-15.131-13.575-15.131-31.742z"></path><path d="m357.073 192.998c0-26.211-13.234-46.743-30.13-46.743s-30.131 20.532-30.131 46.743 13.235 46.742 30.131 46.742 30.13-20.531 30.13-46.742zm-45.261 0c0-18.168 7.988-31.743 15.131-31.743 7.142 0 15.13 13.575 15.13 31.743 0 18.167-7.988 31.742-15.13 31.742s-15.131-13.575-15.131-31.742z"></path><path d="m399.14 297.006c16.896 0 30.131-17.96 30.131-40.888s-13.235-40.888-30.131-40.888-30.131 17.96-30.131 40.888 13.235 40.888 30.131 40.888zm0-66.776c7.156 0 15.131 10.632 15.131 25.888s-7.975 25.888-15.131 25.888-15.131-10.632-15.131-25.888 7.974-25.888 15.131-25.888z"></path><path d="m171.775 215.23c-16.896 0-30.131 17.96-30.131 40.888s13.235 40.888 30.131 40.888 30.131-17.96 30.131-40.888-13.235-40.888-30.131-40.888zm0 66.776c-7.157 0-15.131-10.632-15.131-25.888s7.974-25.888 15.131-25.888 15.131 10.632 15.131 25.888-7.974 25.888-15.131 25.888z"></path><path d="m445.647 125.265c-42.788-42.789-99.677-66.355-160.187-66.355-26.703 0-52.746 4.595-77.546 13.639-14.296-42.14-54.236-72.549-101.145-72.549-58.873 0-106.769 47.896-106.769 106.769 0 46.909 30.409 86.85 72.549 101.145-9.044 24.799-13.639 50.842-13.639 77.546 0 60.511 23.565 117.399 66.354 160.188 42.79 42.788 99.682 66.352 160.196 66.352 57.851 0 112.92-21.807 155.065-61.404 3.019-2.836 3.166-7.583.33-10.602s-7.581-3.165-10.602-.33c-39.352 36.974-90.774 57.336-144.793 57.336-116.649 0-211.55-94.896-211.55-211.54 0-25.42 4.451-50.193 13.217-73.741 6.369 1.189 12.933 1.818 19.642 1.818 1.395 0 2.782-.036 4.164-.089-6.745 16.313-11.143 33.446-13.088 51.101-.454 4.117 2.516 7.822 6.634 8.276.279.03.556.046.831.046 3.774 0 7.022-2.842 7.446-6.68 2.103-19.085 7.312-37.511 15.492-54.825 41.668-8.544 74.567-41.438 83.116-83.104 23.22-10.983 48.125-16.562 74.097-16.562 95.806 0 173.75 77.948 173.75 173.76 0 95.806-77.944 173.75-173.75 173.75-89.83 0-165.897-70.038-173.175-159.448-.335-4.129-3.958-7.203-8.083-6.867-4.128.336-7.203 3.955-6.867 8.084 3.833 47.09 25.101 90.768 59.887 122.987 34.981 32.4 80.523 50.244 128.238 50.244 104.077 0 188.75-84.673 188.75-188.75 0-104.082-84.673-188.76-188.75-188.76-25.07 0-49.23 4.796-72.012 14.238.053-1.384.089-2.772.089-4.169 0-6.709-.629-13.273-1.818-19.642 23.55-8.766 48.322-13.217 73.741-13.217 116.644 0 211.54 94.9 211.54 211.55 0 47.206-15.214 91.86-43.996 129.136-2.531 3.279-1.926 7.989 1.353 10.521 1.365 1.054 2.978 1.563 4.579 1.563 2.243 0 4.464-1.003 5.941-2.916 30.827-39.926 47.122-87.75 47.122-138.304 0-60.514-23.564-117.405-66.353-160.195zm-338.878 73.272c-50.602 0-91.769-41.167-91.769-91.768s41.167-91.769 91.769-91.769 91.769 41.167 91.769 91.769-41.168 91.768-91.769 91.768z"></path><path d="m166.956 63.816c-4.508-4.681-10.64-7.293-17.265-7.355-.078 0-.155-.001-.233-.001-6.646 0-13.118 2.667-17.79 7.339l-36.616 36.615-13.496-13.495c-4.627-4.629-10.78-7.178-17.325-7.177-6.544 0-12.696 2.549-17.324 7.176-4.627 4.628-7.176 10.78-7.176 17.324s2.549 12.696 7.176 17.324l26.575 26.575c5.76 5.762 13.42 8.936 21.569 8.936s15.808-3.173 21.567-8.934l50.011-50.011c9.376-9.375 9.522-24.77.327-34.316zm-10.933 23.709-50.012 50.012c-2.926 2.928-6.819 4.54-10.959 4.54s-8.033-1.612-10.961-4.542l-26.576-26.576c-1.794-1.794-2.783-4.18-2.783-6.717s.988-4.923 2.782-6.717c1.794-1.795 4.18-2.783 6.718-2.783s4.923.987 6.717 2.783l17.387 17.386c3.705 3.704 9.731 3.7 13.433-.002l40.504-40.503c1.897-1.897 4.589-2.966 7.276-2.945 2.566.023 4.911 1.005 6.603 2.762 3.565 3.7 3.507 9.668-.129 13.302z"></path></g></svg>