<svg xmlns="http://www.w3.org/2000/svg" id="Capa_1" height="70" viewBox="0 0 512.01 512.01" width="70" fill="#C3AC67"><path d="m98.292 236.128c11.325-.394 22.045-5.122 29.982-13.113 17.378 17.54 45.695 17.531 63.066.002 8.321 8.398 19.602 13.146 31.521 13.15h.002c4.142 0 7.5-3.356 7.501-7.498s-3.355-7.501-7.497-7.502c-8.786-.003-17.053-3.904-22.681-10.705-2.195-2.654-5.42-4.176-8.846-4.176s-6.65 1.522-8.847 4.176c-11.823 14.286-33.571 14.258-45.372 0-4.62-5.583-13.099-5.553-17.692 0-5.451 6.587-13.144 10.378-21.659 10.674-4.14.144-7.379 3.617-7.234 7.756.144 4.141 3.613 7.376 7.756 7.236z"></path><path d="m98.291 192.784c11.326-.394 22.047-5.122 29.984-13.113 13.131 13.233 33.232 16.919 50.223 9.04 3.758-1.743 5.392-6.202 3.648-9.959-1.742-3.758-6.199-5.39-9.959-3.649-12.11 5.616-26.529 2.333-35.065-7.983-4.62-5.582-13.1-5.553-17.691 0-5.453 6.588-13.145 10.379-21.659 10.674-4.14.144-7.38 3.616-7.235 7.756.143 4.138 3.658 7.365 7.754 7.234z"></path><path d="m511.224 180.092v-.001c-22.116-55.507-72.262-93.928-129.808-101.931v-7.148c0-12.609-10.258-22.867-22.867-22.867s-22.868 10.258-22.868 22.867v7.148c-18.384 2.557-36.112 8.195-52.57 16.726h-84.086c-4.143 0-7.5 3.358-7.5 7.5s3.357 7.5 7.5 7.5h60.343c-5.98 4.536-12.344 10.083-17.916 15.735h-167.25c-3.584 0-6.667 2.536-7.359 6.053l-32.644 165.968c-.91 4.631 2.639 8.947 7.359 8.947h84.911v15.735h-103.595c-4.951 0-8.675-4.534-7.719-9.386l38.688-196.704c.723-3.679 3.97-6.349 7.719-6.349h101.605c4.143 0 7.5-3.358 7.5-7.5s-3.357-7.5-7.5-7.5h-101.605c-10.898 0-20.335 7.762-22.438 18.455l-38.686 196.702c-2.783 14.136 8.054 27.282 22.437 27.282h103.595v17.62c0 4.142 3.357 7.5 7.5 7.5s7.5-3.358 7.5-7.5v-17.62h32.127v17.62c0 4.142 3.357 7.5 7.5 7.5s7.5-3.358 7.5-7.5v-17.62h147.085v21.183h-72.412c-12.609 0-22.867 10.258-22.867 22.868 0 10.255 6.785 18.954 16.102 21.845v37.779c0 12.609 10.259 22.867 22.868 22.867s22.867-10.258 22.867-22.867v-36.757h109.469v36.757c0 12.609 10.258 22.867 22.867 22.867s22.868-10.258 22.868-22.867v-53.285l46.723-77.798c3.053-5.083 3.994-11.096 2.685-16.86l-8.366-42.541c-.798-4.064-4.743-6.713-8.807-5.912-4.064.799-6.711 4.742-5.912 8.806l4.353 22.13c-5.463-.86-11.1.386-15.437 3.049l-16.42-83.491h16.035l4.416 22.454c.8 4.063 4.745 6.712 8.807 5.912 4.064-.799 6.711-4.742 5.912-8.806l-3.847-19.56h13.438c7.726.001 13.068-7.806 10.2-15.005zm-129.808 157.232h52.939l-12.722 21.183h-40.218v-21.183zm61.948-15h-61.948v-15.735h71.397c-3.276 5.457-6.161 10.261-9.449 15.735zm-111.683-142.226c6.757-67.052 21.787-88.356 26.81-88.518h.117c5.021.161 20.051 21.464 26.81 88.518-6.918 0-45.823 0-53.737 0zm-52.19 0c10.655-40.735 31.314-70.868 55.64-82.837-10.735 22.604-16.075 58.069-18.516 82.837zm-57.343 0c16.288-36.555 46.389-64.34 81.95-78.28-20.439 20.888-33.189 50.003-40.077 78.28zm178.336 0c-2.446-24.806-7.789-60.251-18.517-82.838 24.326 11.969 44.984 42.102 55.64 82.838zm-49.803-103.335v-5.751c0-4.338 3.529-7.867 7.868-7.867 4.338 0 7.867 3.529 7.867 7.867v5.751c-4.987-.236-10.365-.252-15.735 0zm-270.311 63.858h148.009c-9.234 11.979-16.828 25.222-22.504 39.468-2.866 7.19 2.463 15.009 10.199 15.009h119.606v96.491h-147.084v-7.335c0-17.128-13.935-31.063-31.063-31.063-9.417 0-17.862 4.218-23.563 10.856-5.701-6.639-14.146-10.856-23.563-10.856-17.129 0-31.063 13.935-31.063 31.063v7.335h-28.667zm46.099 150.968h-32.127v-7.335c0-8.857 7.206-16.063 16.063-16.063s16.063 7.206 16.063 16.063v7.335zm47.127 0h-32.127v-7.335c0-8.857 7.206-16.063 16.063-16.063s16.063 7.206 16.063 16.063v7.335zm-32.127 30.735v-15.735h32.127v15.735zm47.127 0v-15.735h147.085v15.735zm162.085-127.226h15.735v163.409h-15.735c0-15.194 0-144.251 0-163.409zm-63.442 245.9c0 4.338-3.529 7.867-7.867 7.867-4.339 0-7.868-3.529-7.868-7.867v-36.757h15.735zm155.204 0c0 4.338-3.529 7.867-7.868 7.867-4.338 0-7.867-3.529-7.867-7.867v-36.757h7.867c2.467 0 5.268-.448 7.868-1.411zm46.169-149.6c3.717 2.232 4.933 7.068 2.694 10.795l-47.792 79.578s-.001.001-.001.001l-2.193 3.652c-1.414 2.354-3.998 3.817-6.745 3.817-21.127 0-150.37 0-171.306 0-4.338 0-7.867-3.529-7.867-7.867s3.529-7.868 7.867-7.868h162.609c2.634 0 5.074-1.381 6.43-3.639 7.964-13.26 32.56-54.215 40.188-66.917l5.32-8.858c2.231-3.715 7.052-4.943 10.796-2.694zm-28.662.191h-78.534v-96.491h59.557zm-6.872-111.491c-6.89-28.282-19.641-57.395-40.077-78.28 35.059 13.742 65.387 41.107 81.95 78.28-14.817 0-27.056 0-41.873 0z"></path></svg>