<svg xmlns="http://www.w3.org/2000/svg" height="24" viewBox="0 -960 960 960" width="24" fill="#C3AC67"><path d="m254-346-62.46-63.691q55.538-55.538 129.269-87.538 73.73-32 159.191-32t159.191 32.308q73.731 32.307 129.269 88.461L706-346q-44-44-102-69t-124-25q-66 0-124 25t-102 69ZM84-516l-62.46-62.46q87.769-89 204.999-139.884Q343.77-769.229 480-769.229q136.23 0 253.461 50.885Q850.691-667.46 938.46-578.46L876-516q-77-77-178.5-120.5T480-680q-116 0-217.5 43.5T84-516Zm396 396 119.46-120.075q-23.154-23.154-53.576-36.154-30.423-13-65.884-13t-65.884 13q-30.422 13-53.576 36.154L480-120Z"/></svg>