<svg xmlns="http://www.w3.org/2000/svg" height="20" viewBox="0 -960 960 960" width="20" fill="#C3AC67"><path d="M288.615-136q-24.315 0-40.465-16.15Q232-168.3 232-192.615v-574.77q0-24.315 16.15-40.465Q264.3-824 288.615-824H728v32h-68v2.154q0 11.377-7.696 19.073t-19.073 7.696H382.769q-11.377 0-19.073-7.696T356-789.846V-792h-67.385q-10.769 0-17.692 6.923T264-767.385v574.77q0 10.769 6.923 17.692T288.615-168h108.846q-17.692-17.615-29.577-41.808Q356-234 356-266.462v-152h304v152q0 32.462-11.884 56.654-11.885 24.193-29.577 41.808H728v32H288.615ZM508-146.462q50 0 85-35t35-85v-120H388v120q0 50 35 85t85 35ZM507.79-564q10.595 0 18.787-7.982 8.192-7.982 8.192-18.577 0-10.595-7.981-18.787-7.982-8.193-18.577-8.193-10.596 0-18.788 7.982t-8.192 18.577q0 10.595 7.982 18.788Q497.194-564 507.79-564Zm.21 177.538Z"/></svg>