<svg xmlns="http://www.w3.org/2000/svg" height="24" viewBox="0 -960 960 960" width="24" fill="#C3AC67"><path d="M297.694-250.001h99.998v-156.153h40v-101.539q0-29.153-20.423-49.576-20.423-20.423-49.576-20.423h-40q-29.154 0-49.577 20.423-20.422 20.423-20.422 49.576v101.539h40v156.153Zm49.999-366.153q19.461 0 32.807-13.346 13.346-13.346 13.346-32.807 0-19.462-13.346-32.808t-32.807-13.346q-19.462 0-32.808 13.346t-13.346 32.808q0 19.461 13.346 32.807 13.346 13.346 32.808 13.346Zm186.539 86.153h163.843l-81.921-131.151-81.922 131.151Zm81.922 231.153 81.921-131.151H534.232l81.922 131.151ZM212.309-140.001q-30.308 0-51.308-21t-21-51.308v-535.382q0-30.308 21-51.308t51.308-21h535.382q30.308 0 51.308 21t21 51.308v535.382q0 30.308-21 51.308t-51.308 21H212.309Zm0-59.999h535.382q5.385 0 8.847-3.462 3.462-3.462 3.462-8.847v-535.382q0-5.385-3.462-8.847-3.462-3.462-8.847-3.462H212.309q-5.385 0-8.847 3.462-3.462 3.462-3.462 8.847v535.382q0 5.385 3.462 8.847 3.462 3.462 8.847 3.462ZM200-200V-760-200Z"/></svg>