<svg xmlns="http://www.w3.org/2000/svg" height="24" viewBox="0 -960 960 960" width="24" fill="#C3AC67"><path d="m104.233-100.771 71.922-359.612H783.46l71.923 359.612h-751.15ZM133.847-800v-59.999h114.231V-800H133.847ZM178-160.769h272.001v-89.232H195.923L178-160.769Zm64.692-428.154-42.768-41.768 80.769-80.769 42.768 41.768-80.769 80.769Zm-34.615 278.924h241.924v-90.386H226l-17.923 90.386ZM480-679.615q-75.307 0-128.037-52.731-52.731-52.73-52.731-128.037h59.999q0 50.32 35.237 85.545 35.238 35.224 85.577 35.224 50.34 0 85.532-35.224 35.192-35.225 35.192-85.545h59.999q0 75.307-52.731 128.037-52.73 52.731-128.037 52.731Zm0-180.768Zm-29.999 344.229v-114.23h59.998v114.23h-59.998Zm59.998 355.385h271.616l-17.923-89.232H509.999v89.232Zm0-149.23h241.54l-17.924-90.386H509.999v90.386Zm208.078-278.54-80.538-81.153 41.768-41.768 81.538 80.153-42.768 42.768ZM711.922-800v-59.999h114.231V-800H711.922Z"/></svg>